<svg xmlns="http://www.w3.org/2000/svg" width="92" height="32" viewBox="0 0 92 32" fill="none">
  <mask id="mask0_414_23698" style="mask-type:alpha" maskUnits="userSpaceOnUse" x="0" y="0" width="92" height="32">
    <rect width="92" height="32" fill="#D8D8D8"/>
  </mask>
  <g mask="url(#mask0_414_23698)">
    <path fill-rule="evenodd" clip-rule="evenodd" d="M37.2399 16.9711L37.2397 16.971L37.2397 16.971C36.9917 16.8068 36.7438 16.6427 36.5153 16.4557C35.4138 15.5543 35.4096 13.9679 36.4935 13.0502C36.6139 12.9486 36.7453 12.8601 36.8767 12.7716L36.8769 12.7715L36.877 12.7714L36.8771 12.7714C36.9335 12.7334 36.9899 12.6954 37.0454 12.6564C37.3922 12.412 37.7407 12.1682 38.101 11.9162C38.1048 11.8459 38.1086 11.788 38.112 11.7377L38.112 11.7376C38.1175 11.6543 38.1216 11.5922 38.1216 11.53C38.1228 8.65437 38.1234 5.7787 38.1228 2.90303L38.1229 2.85099C38.1233 2.74314 38.1236 2.63446 38.1104 2.52797C38.0208 1.78136 37.3539 1.19825 36.6085 1.21115C35.8442 1.22463 35.2186 1.79894 35.1484 2.56254C35.1313 2.75377 35.1318 2.94628 35.1323 3.13861L35.1325 3.23707C35.1319 8.78857 35.1319 14.3401 35.1331 19.8916L35.1329 19.9488L35.1321 20.0282V20.0283C35.1303 20.2085 35.1285 20.3891 35.1549 20.5649C35.1832 20.7589 35.2368 20.9599 35.3312 21.1287C35.6626 21.7194 36.326 21.9825 37.0171 21.8231C37.6175 21.6843 38.0969 21.1228 38.1134 20.4577C38.1299 19.7939 38.1262 19.1296 38.1225 18.4631C38.1209 18.1769 38.1193 17.8903 38.1193 17.6031C38.0641 17.5614 38.0109 17.5204 37.9587 17.4803C37.8454 17.3931 37.7372 17.3098 37.6257 17.2316C37.4989 17.1425 37.3694 17.0568 37.2399 16.9711ZM76.354 12.6553C75.5838 8.7171 71.2566 6.48197 67.5881 8.16799C65.293 9.22285 64.0246 11.0519 63.8884 13.5829C63.8499 14.3028 63.8601 15.0252 63.8702 15.7476C63.8749 16.0779 63.8795 16.4081 63.8795 16.7382H63.8671V19.7433L63.8669 19.7758L63.8668 19.7882C63.8664 19.8233 63.8661 19.8585 63.8677 19.8934C63.8709 19.9692 63.873 20.0452 63.8751 20.1213L63.8751 20.1219C63.8799 20.2959 63.8846 20.4701 63.9031 20.6429C63.945 21.0385 64.1543 21.3432 64.4686 21.5806C65.1992 22.1332 66.608 21.9287 66.8522 20.599C66.8824 20.4341 66.8788 20.2623 66.8752 20.091C66.874 20.0352 66.8728 19.9793 66.8728 19.9238C66.8739 18.9221 66.8739 17.9202 66.8738 16.9182C66.8738 16.3175 66.8738 15.7167 66.874 15.116C66.874 14.9873 66.873 14.8585 66.8721 14.7297V14.7292C66.8697 14.4073 66.8672 14.0854 66.8799 13.764C66.9436 12.1161 68.1861 10.7964 69.8797 10.6223C71.3291 10.4734 72.8741 11.3818 73.3111 12.9858C73.4084 13.3427 73.4444 13.7254 73.4467 14.0963C73.4564 15.4739 73.4556 16.8517 73.4547 18.2295C73.4544 18.78 73.4541 19.3306 73.4544 19.8811C73.4544 19.9103 73.4542 19.9396 73.4539 19.9689L73.4531 20.0363V20.0364V20.0366V20.0368V20.0369V20.0371C73.4509 20.2111 73.4487 20.3857 73.4709 20.5562C73.5712 21.3116 74.2063 21.8665 74.9741 21.8648C75.7324 21.863 76.4076 21.2741 76.4436 20.5362L76.4492 20.4304L76.4492 20.4301C76.4567 20.2905 76.4642 20.151 76.4642 20.0112L76.4648 19.2847L76.4653 18.775V18.7749V18.7748V18.7747V18.7746V18.7745V18.7744V18.7743V18.7742V18.7741C76.4669 17.183 76.4685 15.5921 76.4601 14.0008C76.4571 13.5513 76.44 13.0942 76.354 12.6553ZM50.9186 14.8073C50.9434 16.7318 52.5338 18.8989 55.1019 18.8779C57.7408 18.8568 59.3159 16.6351 59.2251 14.6848C59.2758 12.939 57.8499 10.603 55.0542 10.6159C52.348 10.6288 50.8944 12.9097 50.9186 14.8073ZM47.8986 14.8125C47.859 10.4911 51.4444 7.62249 55.0457 7.60491C58.5054 7.58674 62.2577 10.2532 62.2535 14.751C62.2494 19.2541 58.4866 21.9493 55.1076 21.8631C51.5541 21.9674 47.9387 19.1129 47.8986 14.8125ZM30.5948 8.72566C30.7682 8.03648 31.3254 7.62567 32.0266 7.62274C32.7236 7.61981 33.2785 8.03004 33.4713 8.71394C33.525 8.90323 33.5492 9.10717 33.5498 9.30466C33.5512 9.87088 33.5546 10.4371 33.5581 11.0034V11.0034V11.0035V11.0035V11.0036V11.0036V11.0037V11.0037V11.0037V11.0038V11.0038C33.5676 12.5643 33.5772 14.1249 33.5439 15.6848C33.4755 18.9092 31.1963 21.2855 28.3811 21.7714C24.6548 22.4142 21.8319 20.0097 21.1166 17.1399C21.0028 16.684 20.9544 16.2023 20.9432 15.7317C20.9251 15.0006 20.9286 14.2693 20.9321 13.538V13.5379V13.5378V13.5378V13.5377V13.5377V13.5376V13.5375V13.5375V13.5374V13.5373V13.5373C20.9336 13.243 20.935 12.9487 20.935 12.6544H20.9326L20.9325 11.8848V11.8848V11.8847V11.8846V11.8845V11.8844V11.8843V11.8843V11.8842V11.8841V11.884C20.9324 11.1149 20.9323 10.346 20.9332 9.57717C20.9332 9.53628 20.9329 9.49534 20.9327 9.45438V9.45436V9.45434V9.45432V9.4543V9.45428V9.45426V9.45424V9.45422V9.4542V9.45418C20.9317 9.29447 20.9308 9.13455 20.9444 8.97648C21.014 8.17303 21.6562 7.60633 22.4682 7.62274C23.2413 7.63798 23.8469 8.20175 23.9112 8.97824C23.9262 9.15642 23.9251 9.33646 23.9241 9.51599V9.51602V9.51605V9.51608V9.5161V9.51613V9.51616V9.51619V9.51622V9.51625V9.51634V9.51644V9.51654V9.51664V9.51674V9.51684V9.51694V9.51704V9.51714V9.51724C23.9238 9.56285 23.9235 9.60843 23.9235 9.65394C23.9239 10.2269 23.9235 10.7999 23.9232 11.3729C23.9223 12.6512 23.9215 13.9295 23.9289 15.2078C23.9306 15.5805 23.9601 15.9597 24.0385 16.323C24.3546 17.7957 25.6691 18.8635 27.1722 18.8857C28.4524 18.9045 29.9833 18.1245 30.4244 16.364C30.4989 16.0667 30.4999 15.7473 30.5009 15.4368V15.4367L30.501 15.3953C30.5045 14.4515 30.5046 13.5079 30.5046 12.5643C30.5047 11.5814 30.5048 10.5986 30.5087 9.61585C30.5099 9.31814 30.5228 9.01223 30.5948 8.72566ZM89.07 18.6834C89.1722 18.7527 89.266 18.8162 89.3444 18.8945C90.6759 20.2248 91.4136 21.8165 91.5375 23.7012C91.7798 27.3961 89.1946 30.7676 85.4229 31.3858C80.93 32.1225 77.5888 29.0534 76.8977 25.6234C76.7874 25.0813 76.7119 24.5357 76.7609 23.9836C76.8175 23.3437 77.3228 22.7934 77.9355 22.6721C78.6113 22.5385 79.2806 22.8456 79.5784 23.4609C79.6554 23.6181 79.6862 23.7982 79.7167 23.976V23.976L79.7167 23.9761L79.7168 23.9771C79.7244 24.021 79.7318 24.0647 79.74 24.1079C79.7697 24.2654 79.7931 24.4245 79.8164 24.5836C79.8585 24.8702 79.9005 25.1567 79.9794 25.4329C80.4883 27.2127 82.2616 28.5969 84.3296 28.499C86.643 28.3889 88.06 26.7304 88.4115 25.1727C88.8148 23.3859 88.2629 21.9214 86.8907 20.737C86.7835 20.6449 86.6706 20.5591 86.5578 20.4734L86.5577 20.4733C86.4911 20.4227 86.4246 20.3721 86.3594 20.3203C86.3492 20.3124 86.3439 20.2988 86.3311 20.2667C86.3223 20.2446 86.3101 20.2137 86.2904 20.1697C87.2793 19.7876 88.155 19.3053 88.9098 18.5716C88.9648 18.6121 89.0185 18.6485 89.07 18.6834ZM81.7958 19.292C81.8188 19.301 81.8426 19.3149 81.8669 19.3291C81.9462 19.3753 82.0312 19.4248 82.1125 19.323C82.0951 19.2145 82.0764 19.1076 82.0578 19.0018L82.0578 19.0014C82.0151 18.7583 81.9734 18.5207 81.9521 18.2811C81.9214 17.9535 81.9798 17.6253 82.1455 17.3375C82.2648 17.1307 82.4001 16.9331 82.5352 16.7356L82.5353 16.7355L82.5355 16.7351L82.5357 16.7349L82.5358 16.7347C82.5935 16.6505 82.6511 16.5662 82.7075 16.4813C82.6199 16.4078 82.5337 16.3383 82.4495 16.2705C82.2662 16.1229 82.0927 15.9832 81.9367 15.8262C80.9826 14.8656 80.7851 13.4041 81.4343 12.2209C82.083 11.0365 83.4375 10.4253 84.752 10.6714C86.0446 10.914 87.1544 12.0908 87.2328 13.4334C87.2835 14.3019 87.0465 15.0596 86.4809 15.7242C86.4406 15.7719 86.3918 15.814 86.3426 15.8566C86.2255 15.9579 86.106 16.0611 86.0935 16.2452C86.2401 16.3006 86.3864 16.3536 86.532 16.4063C86.8648 16.5269 87.1934 16.6459 87.5106 16.789C87.8263 16.9314 88.1309 17.0982 88.4293 17.2615L88.4294 17.2616C88.5608 17.3335 88.6909 17.4047 88.8203 17.4729C88.8466 17.4594 88.8703 17.449 88.8913 17.4397C88.9304 17.4224 88.9606 17.4091 88.9824 17.3874C89.0526 17.317 89.1198 17.2414 89.1759 17.1588C90.1329 15.7435 90.4732 14.2081 90.1577 12.5174C89.6382 9.73902 86.9421 7.16692 83.2954 7.67149C79.9966 8.12801 78.1161 10.8894 78.0459 13.4744C77.9675 16.3454 79.7814 18.4932 81.7958 19.292ZM46.7413 18.9127C46.8917 19.0131 47.0421 19.1135 47.179 19.2299C47.7563 19.721 47.886 20.5912 47.4838 21.2013C47.0575 21.8477 46.1942 22.0551 45.4789 21.6765C45.3254 21.5955 45.1813 21.4974 45.0376 21.3996L44.97 21.3536C43.5975 20.423 42.2261 19.4913 40.8547 18.5597L39.4817 17.6271C39.4469 17.6035 39.4125 17.5791 39.378 17.5547L39.378 17.5547C39.3097 17.5063 39.2414 17.4579 39.1697 17.4155C38.9503 17.286 38.8743 17.0861 38.8707 16.8465C38.8702 16.8143 38.8691 16.7821 38.8679 16.75C38.8664 16.7071 38.8648 16.6643 38.8648 16.6214C38.8647 16.2458 38.8656 15.8702 38.8665 15.4946C38.8687 14.6185 38.8709 13.7426 38.8589 12.8673C38.853 12.4483 39.0022 12.1758 39.3549 11.9402C40.8576 10.9361 42.3519 9.92015 43.8461 8.90419C44.2846 8.6061 44.723 8.30801 45.1616 8.01023C45.4771 7.79574 45.802 7.61993 46.203 7.6211C46.8081 7.62286 47.3594 7.95983 47.5906 8.48843C47.8341 9.04516 47.7185 9.74196 47.2881 10.158C47.1245 10.3157 46.9319 10.4464 46.7413 10.5757L46.6884 10.6116C45.9819 11.092 45.2748 11.5715 44.5678 12.0511C43.5073 12.7704 42.4468 13.4898 41.3881 14.2116C41.3381 14.2458 41.2857 14.2777 41.233 14.3098C41.0519 14.4201 40.8683 14.5319 40.7696 14.7426C40.8698 14.956 41.0548 15.069 41.2376 15.1806L41.2376 15.1807C41.2892 15.2121 41.3406 15.2435 41.3899 15.2771C42.5593 16.0745 43.7306 16.8695 44.9018 17.6645L44.9027 17.6652L44.9037 17.6658L44.9046 17.6664L44.9056 17.6671L44.9065 17.6677L44.9084 17.669C45.4813 18.0579 46.0543 18.4469 46.627 18.836L46.6892 18.8779L46.7406 18.9122L46.7413 18.9127ZM7.30143 18.3423L7.3014 18.3423L7.30136 18.3424C7.23586 18.3907 7.17035 18.4391 7.10111 18.4821C5.58087 19.4279 3.63252 18.5794 3.3129 16.8224C3.25039 16.4808 3.24037 16.1268 3.23919 15.7781C3.23478 14.4001 3.235 13.0221 3.23523 11.6442C3.23533 10.9958 3.23544 10.3475 3.23506 9.69918C3.23447 9.44895 3.22739 9.19871 3.21737 8.94906C3.18494 8.1626 2.40713 7.61407 1.74843 7.61232C1.15166 7.60997 0.367363 8.0495 0.247065 8.92913C0.229062 9.06401 0.230572 9.20211 0.232077 9.33979C0.232495 9.37799 0.232912 9.41616 0.232912 9.45422C0.232656 9.94923 0.23212 10.4442 0.231585 10.9391C0.229659 12.7205 0.227733 14.5015 0.238809 16.2833C0.241757 16.7298 0.283036 17.1864 0.385054 17.62C1.28965 21.4591 5.68112 23.0467 8.86018 20.9317C8.93958 20.8787 9.00974 20.8124 9.09252 20.7342C9.13516 20.694 9.18114 20.6505 9.23346 20.6041C8.53467 19.8587 8.09829 18.996 7.7545 18.0244C7.69667 18.0645 7.6468 18.099 7.60192 18.13C7.52826 18.1809 7.46807 18.2224 7.40835 18.2647C7.37237 18.2899 7.33697 18.3161 7.30157 18.3422L7.30153 18.3423L7.3015 18.3423L7.30147 18.3423L7.30143 18.3423ZM17.8529 7.62243C18.646 7.62771 19.2676 8.20905 19.3454 9.02423C19.3551 9.12161 19.3543 9.22007 19.3535 9.31848C19.3533 9.34563 19.3531 9.37277 19.3531 9.39988C19.3531 10.1008 19.3541 10.8018 19.3551 11.503V11.5032V11.5034V11.5036V11.5039V11.5044C19.3575 13.1288 19.3598 14.7536 19.3495 16.3784C19.3324 18.9874 17.5928 21.1633 15.0259 21.7341C13.4272 22.0904 11.9264 21.7939 10.5825 20.8305C10.5449 20.8038 10.5136 20.7687 10.4665 20.7159L10.4665 20.7159L10.4664 20.7158L10.4664 20.7158L10.4664 20.7157C10.439 20.685 10.4062 20.6483 10.3637 20.6037C11.0183 19.8512 11.4901 19.0313 11.7731 18.1423C11.931 18.0623 12.0152 18.1315 12.0996 18.2009C12.1104 18.2098 12.1212 18.2187 12.1322 18.2273L12.1737 18.26C12.2979 18.3579 12.4228 18.4564 12.5592 18.535C14.0989 19.4269 16.0461 18.4846 16.2825 16.7282C16.3285 16.3825 16.335 16.0297 16.3356 15.6798C16.3385 14.4771 16.3383 13.2744 16.3381 12.0716C16.338 11.2983 16.3378 10.5249 16.3385 9.7515L16.3383 9.6391V9.63906C16.3376 9.42651 16.3369 9.21326 16.358 9.00255C16.4423 8.15748 17.0344 7.61716 17.8529 7.62243ZM9.84669 7.62317C10.5089 7.6431 11.045 8.0498 11.2207 8.7003C11.285 8.93882 11.3115 9.19257 11.3127 9.43929C11.3192 11.7143 11.3251 13.9898 11.3127 16.2642C11.305 17.5775 10.9247 18.7748 10.0873 19.8092C10.0367 19.8718 9.978 19.9277 9.91122 19.9914L9.9112 19.9914C9.8767 20.0242 9.84005 20.0592 9.80128 20.0981C9.76 20.059 9.71955 20.0232 9.6807 19.9888L9.68066 19.9888C9.60132 19.9185 9.52866 19.8542 9.46928 19.7799C8.69265 18.8047 8.2893 17.6842 8.27633 16.4512C8.25618 14.4722 8.26265 12.4924 8.26912 10.5134L8.26912 10.5128L8.26912 10.5121C8.27042 10.117 8.27171 9.72185 8.27279 9.32677C8.27338 9.10525 8.30168 8.87494 8.36655 8.66455C8.57353 7.99061 9.14082 7.60266 9.84669 7.62317ZM84.0299 16.7979C83.2355 16.8324 82.6423 17.5075 82.6535 18.2981C82.6647 19.0588 83.2409 19.6841 84.0063 19.7403C84.586 19.7837 85.1609 19.7269 85.7223 19.5692C86.6776 19.302 87.5398 18.8677 88.2952 18.1545C88.2657 18.1128 88.2444 18.0793 88.2274 18.0526C88.1987 18.0075 88.182 17.9813 88.1583 17.9658C86.9076 17.1401 85.5312 16.7322 84.0299 16.7979ZM36.7152 15.6454C36.2441 15.0295 36.2989 14.2226 36.8739 13.6746C37.1982 13.3652 37.5797 13.129 38.0532 12.8981C38.1529 13.6811 38.1452 15.9584 38.0532 16.5427C37.5355 16.3469 36.9529 15.956 36.7152 15.6454Z" fill="#FF5353"/>
  </g>
</svg>
